# xmcd
#
# Track frame offsets: 
#        150
#        16471
#        33341
#        53272
#        69655
#        94088
#        112167
#        134185
#        149032
#        167112
#        184873
#        208089
#        224776
#        248315
#        264832
#        283871
#        304541
#        329802
#
# Disc length: 4617 seconds
#
# Revision: 0
# Processed by: cddbd v1.5.2PL0 Copyright (c) Steve Scherf et al.
# Submitted via: ExactAudioCopyFreeDBPlugin 1.0
#
DISCID=1e120712
DTITLE=Carl Sonny Leyland - King Of The Barrelhouse
DYEAR=2014
DGENRE=Blues
TTITLE0=King Of The Barrelhouse
TTITLE1=Mecca Flat News
TTITLE2=Cherokee
TTITLE3=Bag Of Rags
TTITLE4=If I Had You
TTITLE5=There'll Be Some Changes Made
TTITLE6=St. James Infirmary
TTITLE7=You Are My Sunshine
TTITLE8=Willie The Weeper
TTITLE9=Trouble In Mind
TTITLE10=Foxtails
TTITLE11=I Want A Girl, Just Like The Girl, That Married Dear Old Dad
TTITLE12=Melancholy Blues
TTITLE13=Maple Leaf Rag
TTITLE14=When You And I Were Young Maggie Blues
TTITLE15=Do You Ever Think Of Me
TTITLE16=Weeping Willow Blues
TTITLE17=Ball Of Twine
EXTD=
EXTT0=
EXTT1=
EXTT2=
EXTT3=
EXTT4=
EXTT5=
EXTT6=
EXTT7=
EXTT8=
EXTT9=
EXTT10=
EXTT11=
EXTT12=
EXTT13=
EXTT14=
EXTT15=
EXTT16=
EXTT17=
PLAYORDER=
